{
  "accessors": [
    {
      "bufferView": 0,
      "componentType": 5125,
      "count": 3072,
      "type": "SCALAR"
    },
    {
      "bufferView": 1,
      "componentType": 5126,
      "count": 560,
      "max": [
        0.883488118648529,
        1.0,
        0.883488118648529
      ],
      "min": [
        -0.883488118648529,
        -0.999999940395355,
        -0.883488237857819
      ],
      "type": "VEC3"
    },
    {
      "bufferView": 2,
      "componentType": 5126,
      "count": 560,
      "type": "VEC3"
    },
    {
      "bufferView": 3,
      "componentType": 5126,
      "count": 560,
      "type": "VEC2"
    }
  ],
  "asset": {
    "generator": "Substance Painter 2019.2.3",
    "version": "2.0"
  },
  "bufferViews": [
    {
      "buffer": 0,
      "byteLength": 12288,
      "target": 34963
    },
    {
      "buffer": 0,
      "byteLength": 6720,
      "byteOffset": 12288,
      "target": 34962
    },
    {
      "buffer": 0,
      "byteLength": 6720,
      "byteOffset": 19008,
      "target": 34962
    },
    {
      "buffer": 0,
      "byteLength": 4480,
      "byteOffset": 25728,
      "target": 34962
    }
  ],
  "buffers": [
    {
      "byteLength": 30208,
      "uri": "bulb.bin"
    }
  ],
  "images": [
    {
      "uri": "Bulb_baseColor.png"
    },
    {
      "uri": "Bulb_occlusionRoughnessMetallic.png"
    },
    {
      "uri": "Bulb_normal.png"
    },
    {
      "uri": "Glosiness.png"
    },
    {
      "uri": "bulb_Bulb_Height.png"
    },
    {
      "uri": "bulb_Bulb_ior.png"
    },
    {
      "uri": "bulb_Bulb_Reflection.png"
    },
    {
      "uri": "bulb_Bulb_Diffuse.png"
    }
  ],
  "materials": [
    {
      "alphaMode": "OPAQUE",
      "name": "Bulb",
      "normalTexture": {
        "index": 2
      },
      "occlusionTexture": {
        "index": 1
      },
      "pbrMetallicRoughness": {
        "baseColorTexture": {
          "index": 0
        },
        "metallicRoughnessTexture": {
          "index": 1
        }
      }
    }
  ],
  "meshes": [
    {
      "name": "Bulb",
      "primitives": [
        {
          "attributes": {
            "NORMAL": 2,
            "POSITION": 1,
            "TEXCOORD_0": 3
          },
          "indices": 0,
          "material": 0,
          "mode": 4
        }
      ]
    }
  ],
  "nodes": [
    {
      "children": [
        1
      ],
      "name": "root",
      "scale": [
        9.56370544433594,
        9.56370544433594,
        9.56370544433594
      ],
      "translation": [
        -0.0338869094848633,
        16.9542274475098,
        -0.219888687133789
      ]
    },
    {
      "children": [
        2
      ],
      "name": "Bulb"
    },
    {
      "mesh": 0,
      "name": "Bulb"
    }
  ],
  "samplers": [
    {
      "magFilter": 9729,
      "minFilter": 9985,
      "wrapS": 10497,
      "wrapT": 10497
    }
  ],
  "scene": 0,
  "scenes": [
    {
      "name": "Scene",
      "nodes": [
        0
      ]
    }
  ],
  "textures": [
    {
      "sampler": 0,
      "source": 0
    },
    {
      "sampler": 0,
      "source": 1
    },
    {
      "sampler": 0,
      "source": 2
    }
  ]
}